<svg width="50" height="50" viewBox="0 0 50 50" fill="none" xmlns="http://www.w3.org/2000/svg">
<g clip-path="url(#clip0)">
<path d="M1.81784 26.7752C1.90873 28.054 2.39046 29.1629 3.2903 30.0841C3.95381 30.7727 4.68095 31.3987 5.1445 32.2572C5.41718 32.758 5.64441 33.2678 5.80802 33.8133C6.25339 35.3246 7.16232 36.4514 8.68931 37.0238C9.32556 37.2653 9.94363 37.5335 10.5072 37.9002C10.5526 37.927 10.589 37.9449 10.6344 37.9717C11.1979 38.41 11.5433 39.0181 11.9705 39.5636C12.4341 40.6546 13.2612 41.4863 14.3065 41.9514C16.0243 42.7115 17.6513 43.6863 19.5237 44.0798C21.0962 44.4107 22.6777 44.4107 24.2501 44.205C25.359 44.0619 26.4134 44.1334 27.4495 44.5627C29.0129 45.2155 30.4944 45.0188 31.9033 44.1513C32.3941 43.8473 32.894 43.57 33.4394 43.3822C34.83 42.9083 35.9753 42.0766 37.0205 41.0928C37.6204 40.5294 38.184 39.9213 38.9293 39.5368C39.311 39.34 39.7109 39.2416 40.1381 39.1969C41.5652 39.0628 42.5013 38.249 43.1285 37.0327C43.4739 36.3531 43.8466 35.6913 44.1738 35.0027C44.501 34.2962 44.9645 33.6791 45.5917 33.1783C46.7733 32.2393 47.4641 30.9784 47.864 29.5475C48.0094 29.0199 48.1458 28.4833 48.2821 27.9556C48.3639 27.6516 48.5821 27.3118 48.5184 26.9988C48.9002 27.4012 48.7366 27.9646 48.7729 28.4565C48.8547 29.5564 48.673 30.6296 48.3548 31.6849C48.0367 32.7222 47.864 33.8133 47.4277 34.8149C47.0096 35.7539 46.4279 36.5856 45.6099 37.2205C44.8646 37.8018 44.3828 38.562 44.0102 39.4026C43.6648 40.1807 43.2467 40.9229 42.7922 41.6384C42.165 42.64 41.1925 43.105 40.0382 43.2391C39.2383 43.3375 38.5839 43.7042 38.0022 44.2318C37.1478 45.0188 36.2934 45.8058 35.3481 46.4854C34.9845 46.7448 34.5755 46.9594 34.1847 47.0936C33.0394 47.487 32.0487 48.1578 30.9489 48.6228C29.6128 49.1862 28.3766 48.9537 27.1314 48.4439C26.9678 48.3813 26.786 48.3545 26.6224 48.3098C26.2407 47.9968 25.8044 48.0057 25.359 48.1399C25.2954 48.1399 25.2318 48.1399 25.1681 48.1399C24.6955 47.9878 24.241 48.0415 23.8138 48.2919C22.6595 48.435 21.5052 48.4618 20.3508 48.2383C19.6782 47.97 18.9784 47.8 18.2512 47.7106V47.7285C18.1603 47.4781 17.9513 47.5407 17.7604 47.5318C17.3968 47.3261 16.9514 47.2814 16.6151 47.031C16.597 46.9236 16.5152 46.9058 16.4243 46.9058L16.4334 46.9147C16.4061 46.8163 16.3152 46.8253 16.2425 46.8163L16.2516 46.8253C16.2243 46.7269 16.1334 46.7448 16.0607 46.7269L16.0698 46.7358C16.0425 46.6375 15.9516 46.6553 15.8789 46.6375L15.888 46.6464C15.8335 46.5123 15.7153 46.5659 15.6153 46.5391C13.8975 46.0562 12.6704 44.992 11.8069 43.4717C11.0798 42.1928 9.92545 41.4416 8.5348 40.9945C8.06216 40.8424 7.70767 40.5115 7.32593 40.2254C6.37155 39.501 5.9898 38.4636 5.64441 37.3994C5.30811 36.362 4.61733 35.5303 3.98108 34.6718C3.84474 34.4929 3.6266 34.4661 3.47208 34.323C2.59951 33.4913 2.09051 32.4897 1.89055 31.3003C1.7633 30.5759 1.73603 29.8426 1.5088 29.1272C1.18159 28.1703 1.2543 27.1866 1.69059 26.2475C1.72694 26.3101 1.7633 26.3727 1.80875 26.4264C1.80875 26.4979 1.80875 26.5605 1.81784 26.6321C1.80875 26.6857 1.81784 26.7305 1.81784 26.7752Z" fill="#255B5C"/>
<path d="M23.3776 40.8603C22.405 40.3685 21.7688 39.5815 21.3961 38.5888C20.4963 36.1832 20.7417 33.9027 22.305 31.8279C22.5323 31.5239 22.7231 31.0946 23.1867 30.9962C23.1867 31.1036 23.2503 31.1662 23.3321 31.2109C23.7775 31.4523 24.0229 31.8637 24.2138 32.3019C24.9409 33.9564 25.2863 35.6734 25.0318 37.4799C24.8955 38.4815 24.4592 39.3758 23.9229 40.2254C23.7775 40.4668 23.4048 40.5205 23.3776 40.8603Z" fill="#6BFCFF" fill-opacity="0.8"/>
<path d="M23.3776 40.8603C23.4048 40.5205 23.7775 40.4668 23.932 40.2164C24.4683 39.3668 24.9046 38.4725 25.0409 37.4709C25.2863 35.6645 24.9409 33.9474 24.2229 32.293C24.032 31.8548 23.7866 31.4434 23.3412 31.2019C23.2503 31.1572 23.1867 31.0946 23.1958 30.9873C23.423 30.728 23.6957 30.8889 23.932 30.9426C24.6591 31.1125 25.1681 31.5865 25.459 32.2483C25.9135 33.2856 26.2407 34.3588 26.3225 35.5035C26.377 36.2368 26.4043 36.9612 26.2952 37.6856C26.1407 38.7051 25.7135 39.6172 25.0863 40.4311C24.6319 40.9945 24.0683 41.1197 23.3776 40.8603Z" fill="#255B5C"/>
<path d="M11.6242 29.0625C10.4244 28.6064 9.70428 27.7119 9.71337 26.4062C9.74973 24.0364 10.4248 21.7039 11.9427 19.8438C13.1152 20.1568 13.8397 20.744 13.6943 21.7188C13.6306 22.1748 13.5448 22.7757 13.4993 23.2318C13.3539 24.6448 12.9812 25.9951 12.4268 27.3008C12.1905 27.8463 11.8787 28.508 11.6242 29.0625Z" fill="#6BFCFF" fill-opacity="0.8"/>
<path d="M11.6724 28.9463C11.9269 28.4008 12.1905 27.8553 12.4268 27.3008C12.9812 25.9951 13.3539 24.6448 13.4993 23.2318C13.5448 22.7757 13.5993 22.3196 13.6629 21.8635C13.8083 20.8887 13.1152 20.1568 11.9427 19.8437C12.0517 19.6202 12.3813 19.6456 12.6358 19.7172C13.063 19.8245 13.4993 19.8782 13.8992 20.0391C14.6082 20.3074 14.9809 20.8351 14.9536 21.5863C14.8809 23.9919 14.3173 26.2813 13.2175 28.4366C12.8631 29.152 12.454 29.2772 11.6724 28.9463Z" fill="#255B5C"/>
<path d="M23.8229 6.36737C24.9136 6.51046 25.9953 6.6446 27.086 6.80558C27.4405 6.85923 27.7404 7.02021 27.8767 7.37792C27.6859 7.40475 27.6404 7.56573 27.5677 7.69987C27.1769 8.37953 26.577 8.81774 25.8589 9.10391C24.4046 9.6852 22.8777 9.55106 21.3688 9.4974C21.0507 9.48846 20.7144 9.44374 20.3963 9.33643C19.5782 9.07708 19.0329 8.46002 18.4148 7.93239C18.5693 7.67304 18.7875 7.45841 19.0511 7.33321C20.0872 6.85029 21.1689 6.47469 22.3232 6.35843C22.814 6.48363 23.323 6.49257 23.8229 6.36737Z" fill="#6BFCFF" fill-opacity="0.8"/>
<path d="M18.4058 7.94133C19.0238 8.46897 19.5692 9.07709 20.3872 9.34538C20.7053 9.45269 21.0416 9.49741 21.3598 9.50635C22.8686 9.56001 24.3956 9.68521 25.8499 9.11286C26.5679 8.82669 27.1678 8.38848 27.5586 7.70882C27.6314 7.57467 27.6859 7.4137 27.8677 7.38687C28.0313 7.71776 27.9586 8.04865 27.8313 8.3706C27.3223 9.65838 26.2861 10.2844 24.9864 10.5706C23.8684 10.812 22.7322 10.7136 21.5961 10.7226C20.0509 10.7315 19.1056 9.8283 18.1331 8.88034C18.0058 8.75514 18.0149 8.64783 18.0785 8.50474C18.1785 8.30799 18.2512 8.10231 18.4058 7.94133Z" fill="#255B5C"/>
<path d="M41.1743 25.0045C40.3654 25.2638 39.6383 25.0313 39.002 24.5573C37.8113 23.6899 37.2023 22.4557 36.9024 21.0696C36.7115 20.1842 36.6752 19.2899 36.866 18.3688C36.966 17.8948 36.9388 17.403 37.3387 17.0453C37.3387 17.2778 37.5296 17.3314 37.6932 17.4209C38.9202 18.1274 39.9019 19.0753 40.5745 20.3273C41.3561 21.8029 41.5834 23.3679 41.1743 25.0045Z" fill="#6BFCFF" fill-opacity="0.8"/>
<path d="M41.1743 25.0045C41.5925 23.3679 41.3561 21.8118 40.5654 20.3184C39.9019 19.0664 38.9202 18.1184 37.6841 17.4119C37.5296 17.3225 37.3296 17.2688 37.3296 17.0363C38.1022 16.0973 37.775 16.0794 38.8384 16.7323C41.3016 18.2615 42.5559 20.4525 42.3832 23.359C42.3378 24.2175 41.8924 24.8077 41.1743 25.0045Z" fill="#255B5C"/>
<path d="M36.766 30.3076C37.4296 30.2987 37.784 30.7727 37.5932 31.3897C37.4114 31.98 36.4116 32.758 35.7844 32.8027C35.6844 32.8117 35.6481 32.7848 35.6208 32.6954C35.5026 32.2035 35.3572 31.7027 35.4481 31.184C35.5299 30.6654 36.0843 30.3166 36.766 30.3076Z" fill="#6BFCFF" fill-opacity="0.8"/>
<path d="M49.9 27.7503C49.8182 27.0885 49.6637 26.382 49.3274 25.8186C49.0456 25.3357 49.0274 24.969 49.2546 24.5219C49.291 24.4414 49.3183 24.3519 49.3637 24.2804C50.209 22.9032 50.1272 21.4991 49.5637 20.0414C48.882 18.2529 48.2094 16.4553 47.5913 14.6489C46.7096 12.0286 45.219 9.75706 43.6011 7.53921C42.7558 6.38557 41.8287 5.48233 40.4017 4.94576C38.4748 4.23032 36.6569 3.22871 34.8027 2.32547C33.4939 1.69053 32.2214 0.984033 30.9034 0.358027C30.4671 0.152339 29.94 -0.0444057 29.4855 0.0181949C27.7222 0.250711 25.968 0.572657 24.2228 0.894603C22.6686 1.18078 21.1325 1.62792 19.5691 1.79784C17.3604 2.0393 15.379 2.72791 13.6066 4.05146C11.5433 5.58965 10.1072 7.61075 8.94378 9.84649C8.70746 10.3115 8.39843 10.6156 7.93488 10.857C4.90816 12.4221 3.0085 14.8456 2.29045 18.1545C2.17229 18.6732 2.20865 19.1561 2.46315 19.6211C2.82672 20.3008 2.76309 20.9626 2.40861 21.6154C1.9087 22.5276 1.42697 23.4755 0.908882 24.3967C0.263545 25.5592 -0.0909362 26.7844 0.0181349 28.1169C0.145385 29.7088 0.56349 31.238 1.09976 32.7404C1.39061 33.5363 1.76327 34.3054 2.45406 34.8152C3.55386 35.6379 4.18101 36.72 4.59003 37.9899C5.19901 39.8769 6.37153 41.2988 8.35298 41.9069C9.41643 42.2289 10.1254 42.8817 10.5617 43.8565C11.007 44.8313 11.6433 45.6988 12.5704 46.2264C14.0429 47.0581 15.5608 47.8361 17.1241 48.489C19.3692 49.428 21.7687 49.3296 24.141 49.1865C25.1681 49.1239 26.1497 49.2491 27.1223 49.5889C27.8222 49.8304 28.7856 50.0271 29.3128 50.0003C29.8309 49.9735 31.6487 49.6426 32.6758 48.9987C32.994 48.802 33.303 48.5605 33.6575 48.4442C35.5844 47.8272 37.1296 46.6735 38.4839 45.2337C38.9383 44.7508 39.4746 44.402 40.129 44.2589C42.574 43.7402 44.0647 42.211 44.9372 39.9753C45.119 39.5013 45.3917 38.9915 45.7735 38.6785C47.0005 37.6769 47.8549 36.4517 48.4002 35.003C48.9365 33.5542 49.5819 32.1323 49.8454 30.612C49.9091 30.299 50.009 28.6267 49.9 27.7503ZM48.4366 26.9275C48.7184 27.3389 48.7547 27.9381 48.8002 28.4657C48.9274 29.9681 48.4548 31.3811 48.0367 32.7941C47.7822 33.6616 47.4822 34.529 47.0641 35.3249C46.746 35.9152 46.2643 36.4517 45.7553 36.8989C45.0372 37.5338 44.4828 38.2403 44.0829 39.0899C43.7465 39.7875 43.383 40.4761 43.0012 41.1468C42.3559 42.2915 41.3924 42.9622 40.02 43.0516C39.2565 43.1053 38.6293 43.5167 38.0658 44.0085C37.2114 44.7508 36.4024 45.5378 35.4844 46.1817C34.7936 46.6646 33.9574 46.9508 33.1939 47.3353C32.8213 47.5231 32.4395 47.702 32.0759 47.9255C31.2216 48.4442 30.3672 48.7572 29.3219 48.7841C28.7493 48.793 28.1494 48.6589 27.6313 48.4442C26.4315 47.9434 25.2136 47.9077 23.9411 48.0686C21.4324 48.3906 19.0238 48.0597 16.7605 46.8971C16.2515 46.6378 15.7335 46.4052 15.1972 46.1996C13.852 45.6809 12.7795 44.8313 12.0705 43.5972C11.3161 42.2736 10.2435 41.3793 8.78018 40.8874C7.34408 40.3956 6.39879 39.3671 5.96251 37.9452C5.48987 36.4249 4.6991 35.1371 3.48114 34.0729C2.50859 33.2144 2.05413 32.0697 1.85416 30.8087C1.74509 30.138 1.64511 29.4584 1.49059 28.7966C1.21792 27.6072 1.44515 26.4714 1.97233 25.4162C2.65402 24.0389 3.40843 22.6975 4.16284 21.365C4.33553 21.052 4.42642 20.7569 4.26282 20.4439C3.40843 18.8252 3.82653 17.3317 4.60821 15.8114C5.22628 14.6131 5.98069 13.5757 7.13502 12.8334C7.62584 12.5204 8.08939 12.1359 8.59839 11.8587C9.48005 11.3757 10.0436 10.6603 10.5526 9.81966C11.2252 8.71074 11.9523 7.6197 12.7795 6.61809C14.3064 4.78478 16.3424 3.77423 18.7056 3.34497C22.1323 2.72791 25.5408 2.05719 28.9583 1.45801C29.3673 1.38647 29.9127 1.45801 30.2581 1.67264C32.0759 2.80839 34.121 3.44334 36.0389 4.33764C37.5295 5.02624 39.011 5.74168 40.5017 6.43029C41.3833 6.83272 42.0196 7.47661 42.6013 8.21887C44.9463 11.2595 46.4642 14.6936 47.6549 18.2886C48.0185 19.3797 48.4366 20.4439 48.7638 21.5349C48.991 22.304 48.8547 23.082 48.4093 23.7617C47.7095 24.8349 47.7004 25.8454 48.4366 26.9275Z" fill="white"/>
<path d="M24.0502 29.5654C22.4505 29.2971 21.4597 29.7979 20.8144 31.2645C20.5417 31.8727 20.269 32.4897 20.0691 33.1336C19.251 35.8076 19.5146 38.3563 21.2325 40.6457C22.7868 42.7205 25.459 42.4969 26.6679 40.2075C27.3223 38.9734 27.6859 37.6677 27.6768 36.7645C27.6677 34.4125 27.1133 32.7133 26.277 31.0946C25.8135 30.2003 25.0318 29.7353 24.0502 29.5654ZM25.9862 38.1327C25.8135 38.7498 25.4863 39.349 25.15 39.9034C24.6137 40.7798 23.6957 40.8872 22.8686 40.2343C21.6688 39.2953 21.2234 37.9986 21.0416 36.5677C21.0144 36.3173 21.0053 36.058 20.9962 35.9149C21.0053 34.0547 21.6143 32.5344 22.814 31.2288C23.0958 30.9247 23.3958 30.8532 23.7866 30.9426C24.4592 31.1036 24.9955 31.4523 25.2772 32.0784C26.1862 34.01 26.5861 36.0311 25.9862 38.1327Z" fill="white"/>
<path d="M13.8702 18.3778C12.5523 17.868 10.6981 18.494 10.1254 19.6655C9.07108 21.8029 8.45301 24.0565 8.35303 26.4443C8.3803 26.7573 8.3803 27.0703 8.44392 27.3744C8.68933 28.5816 9.53463 29.3239 10.5435 29.9231C12.0705 30.8174 13.7248 30.3166 14.4883 28.7426C15.479 26.6857 15.9971 24.5126 16.1971 22.2679C16.3698 20.2737 15.6063 19.0485 13.8702 18.3778ZM14.8064 21.9639C14.6428 24.1281 14.152 26.2207 13.1794 28.1882C12.725 29.1003 12.3614 29.2345 11.407 28.841C10.2345 28.3491 9.74368 27.4191 9.82549 26.015C9.88911 23.7614 10.5708 21.8566 11.8433 20.1485C12.1069 19.7907 12.3705 19.6298 12.8249 19.7997C13.1158 19.907 13.443 19.9338 13.743 20.0411C14.561 20.3184 14.8882 20.8907 14.8064 21.9639Z" fill="white"/>
<path d="M21.6233 12.1624C22.9776 12.0998 24.3501 12.0372 25.6771 11.8047C27.2041 11.5364 28.2767 10.5974 28.8675 9.15759C29.531 7.53892 28.8675 6.1617 27.1769 5.6609C25.9498 5.30318 24.6864 5.17798 23.5321 5.20481C20.7326 5.20481 19.9509 5.41049 18.2785 6.58202C17.6604 7.01128 17.1241 7.54786 16.9969 8.29907C16.8969 8.84459 16.8787 9.43482 16.9969 9.9714C17.0605 10.2307 17.5241 10.4096 17.824 10.6153C18.0603 10.7763 18.2967 10.9372 18.5512 11.0624C19.5328 11.5543 20.469 12.2161 21.6233 12.1624ZM18.8602 9.33645C18.2694 8.77304 18.2512 8.54947 18.7966 7.92346C18.9602 7.73566 19.1692 7.5568 19.3965 7.45843C20.5962 6.93974 21.8233 6.52836 23.423 6.52836C24.4046 6.65356 25.6499 6.79665 26.886 6.9934C27.6586 7.1186 27.9222 7.65517 27.6586 8.3885C27.2132 9.59579 26.2679 10.2129 25.05 10.499C23.6866 10.821 22.3141 10.7315 20.9416 10.5885C20.0691 10.5169 19.4601 9.9088 18.8602 9.33645Z" fill="white"/>
<path d="M41.5197 17.3672C40.5199 15.8916 39.1202 15.0867 37.3023 15.051C36.5661 15.0331 36.048 15.3819 35.9026 16.0794C35.6844 17.1257 35.439 18.1899 35.4208 19.2452C35.3845 21.1858 36.0207 22.9655 37.1842 24.5394C37.9658 25.5947 39.0293 26.1402 40.3654 26.1313C40.4836 26.1313 40.6108 26.1402 40.729 26.1313C41.7015 26.0418 42.6468 25.8362 43.0285 24.8346C43.274 24.1907 43.4648 23.4663 43.4103 22.7956C43.2376 20.846 42.6377 19.0038 41.5197 17.3672ZM42.2651 23.0549C42.2287 24.6557 41.0016 25.4248 39.5292 24.7451C38.3021 24.1817 37.675 23.1175 37.2205 21.937C36.7115 20.6224 36.6752 19.2363 36.9842 17.8948C37.1114 17.3583 37.5932 16.8932 37.9295 16.3835C39.1929 17.0363 40.2018 17.7965 41.0016 18.9143C41.9106 20.1932 42.3014 21.5435 42.2651 23.0549Z" fill="white"/>
<path d="M37.9295 29.4312C37.5477 29.2703 37.1205 29.2077 36.7206 29.1003C36.1116 29.0914 35.6026 29.2971 35.1482 29.6548C34.1029 30.4954 33.7939 31.6223 33.9302 32.8922C34.0029 33.545 34.5846 34.0369 35.2481 34.1084C36.7842 34.2783 38.3839 33.3214 38.9384 31.9084C39.3565 30.871 38.9656 29.8784 37.9295 29.4312ZM37.5568 31.2198C37.475 31.6491 37.2841 32.0157 36.8842 32.2214C36.5116 32.4092 36.1389 32.5792 35.6935 32.7938C35.6208 32.293 35.5117 31.8727 35.5117 31.4434C35.5117 30.6475 36.5206 30.1109 37.2387 30.4865C37.5295 30.6564 37.6114 30.9158 37.5568 31.2198Z" fill="white"/>
<path d="M12.0342 35.0116C11.1252 34.6271 10.3345 35.1637 10.3527 36.4872C10.3345 37.0953 10.798 37.8287 11.3797 38.5799C11.9251 39.2864 12.5432 39.6977 13.4339 39.7872C14.2065 39.8676 14.9336 39.4473 15.1336 38.6961C15.3518 37.8644 14.9246 37.2205 14.4519 36.6124C13.8157 35.8344 12.9431 35.3872 12.0342 35.0116ZM13.7339 38.2579C13.6248 38.3831 13.3339 38.4815 13.2067 38.4278C12.8795 38.2758 12.5523 38.0701 12.3159 37.8018C12.0614 37.5067 11.9069 37.1132 11.6615 36.675C12.4977 36.8807 13.1885 37.1311 13.643 37.7571C13.7339 37.8913 13.8066 38.1774 13.7339 38.2579Z" fill="white"/>
<path d="M29.0947 18.9769C28.7039 18.8338 28.2767 18.7712 28.0676 18.7176C27.2041 18.7265 26.5588 18.8517 26.0952 19.2989C25.5862 19.7907 25.1409 20.3631 24.7319 20.9444C24.3683 21.4631 24.5501 21.8387 25.1409 22.107C25.8135 22.4021 26.477 22.2679 27.1405 22.1249C28.0494 21.9281 28.9402 21.6598 29.5855 20.9444C30.249 20.2021 30.04 19.3257 29.0947 18.9769Z" fill="white"/>
<path d="M37.7113 10.8478C38.0203 10.9551 38.3567 10.9641 38.6839 11.0177C39.5655 10.9641 39.6655 10.8657 39.6473 10.0787C39.6382 9.47058 39.2292 8.93401 38.6293 8.73726C38.1476 8.57629 37.8567 8.71938 37.3932 9.3275C37.3477 9.3901 37.3023 9.44375 37.2659 9.50636C36.9206 10.0519 37.0932 10.6242 37.7113 10.8478Z" fill="white"/>
<path d="M23.8048 31.3361L23.7957 31.3541L23.8048 31.3631L23.8231 31.3451L23.8048 31.3541V31.3361Z" fill="white"/>
</g>
<defs>
<clipPath id="clip0">
<rect width="50" height="50" fill="white"/>
</clipPath>
</defs>
</svg>
