<svg id="LOGO" xmlns="http://www.w3.org/2000/svg" xmlns:xlink="http://www.w3.org/1999/xlink" viewBox="0 0 200 200"><defs><style>.cls-1{fill:none;}.cls-2{clip-path:url(#clip-path);}.cls-3{fill:#255b5c;}.cls-4{fill:#6bfcff;fill-opacity:0.8;}.cls-5{fill:#fff;}</style><clipPath id="clip-path"><rect class="cls-1" x="0.65" y="0.39" width="198.78" height="198.78"/></clipPath></defs><title>MTE_200</title><g class="cls-2"><path class="cls-3" d="M7.88,106.84A20.38,20.38,0,0,0,13.73,120c2.64,2.73,5.53,5.22,7.37,8.63a32.11,32.11,0,0,1,2.64,6.19c1.77,6,5.39,10.49,11.46,12.77a37.63,37.63,0,0,1,7.23,3.48l.5.28c2.24,1.75,3.61,4.16,5.31,6.33a18,18,0,0,0,9.29,9.5c6.83,3,13.3,6.89,20.74,8.46a56,56,0,0,0,18.79.5,24.19,24.19,0,0,1,12.72,1.42c6.22,2.59,12.11,1.81,17.71-1.64a30.63,30.63,0,0,1,6.11-3.06,39.3,39.3,0,0,0,14.23-9.1c2.39-2.24,4.63-4.66,7.59-6.18a13.22,13.22,0,0,1,4.81-1.36c5.67-.53,9.39-3.76,11.89-8.6,1.37-2.7,2.85-5.33,4.15-8.07a19.76,19.76,0,0,1,5.64-7.25c4.7-3.74,7.44-8.75,9-14.44.58-2.1,1.12-4.23,1.67-6.33.32-1.21,1.19-2.56.93-3.8,1.52,1.6.87,3.84,1,5.79a35.23,35.23,0,0,1-1.67,12.84c-1.26,4.12-1.95,8.46-3.68,12.44a24.37,24.37,0,0,1-7.23,9.57,21.72,21.72,0,0,0-6.36,8.67,67,67,0,0,1-4.84,8.89c-2.49,4-6.36,5.83-10.95,6.36a14.51,14.51,0,0,0-8.09,4,114.11,114.11,0,0,1-10.56,9,18.44,18.44,0,0,1-4.62,2.42c-4.55,1.56-8.49,4.23-12.87,6.08-5.31,2.24-10.22,1.31-15.17-.71-.65-.25-1.38-.36-2-.54a5.11,5.11,0,0,0-5-.67h-.76a6.37,6.37,0,0,0-5.38.6,43.58,43.58,0,0,1-13.77-.21,33.43,33.43,0,0,0-8.35-2.1v.07c-.36-1-1.19-.74-1.95-.78-1.44-.82-3.21-1-4.55-2-.07-.43-.4-.5-.76-.5l0,0c-.11-.39-.47-.36-.76-.39l0,0c-.11-.39-.47-.32-.76-.39l0,0c-.11-.39-.47-.32-.76-.39l0,0c-.22-.53-.69-.32-1.09-.43-6.83-1.92-11.7-6.15-15.14-12.19-2.89-5.08-7.48-8.07-13-9.85-1.88-.6-3.28-1.92-4.8-3.06-3.8-2.88-5.31-7-6.69-11.23s-4.08-7.43-6.61-10.85c-.54-.71-1.41-.81-2-1.38a20.8,20.8,0,0,1-6.29-12c-.51-2.88-.62-5.79-1.52-8.64a15.06,15.06,0,0,1,.72-11.45,5.14,5.14,0,0,0,.47.71,5.56,5.56,0,0,0,0,.82A2.71,2.71,0,0,0,7.88,106.84Z"/><path class="cls-4" d="M93.59,162.84a16,16,0,0,1-7.87-9c-3.58-9.57-2.61-18.63,3.61-26.88.9-1.21,1.66-2.92,3.5-3.31a.94.94,0,0,0,.58.85,8.38,8.38,0,0,1,3.51,4.34,37.45,37.45,0,0,1,3.25,20.59,27.43,27.43,0,0,1-4.41,10.91C95.18,161.27,93.7,161.49,93.59,162.84Z"/><path class="cls-3" d="M93.59,162.84c.11-1.35,1.59-1.57,2.21-2.56a27.68,27.68,0,0,0,4.41-10.92A38,38,0,0,0,97,128.78a8.27,8.27,0,0,0-3.5-4.34.85.85,0,0,1-.58-.85c.9-1,2-.4,2.93-.18a8.62,8.62,0,0,1,6.07,5.19,38.82,38.82,0,0,1,3.43,12.94,38.16,38.16,0,0,1-.11,8.68,23.47,23.47,0,0,1-4.8,10.91C98.58,163.37,96.34,163.87,93.59,162.84Z"/><path class="cls-4" d="M46.87,115.93c-4.77-1.81-7.64-5.37-7.6-10.56.14-9.42,2.83-18.69,8.86-26.09,4.66,1.25,7.54,3.58,7,7.46-.26,1.81-.6,4.2-.78,6a56,56,0,0,1-4.26,16.18C49.12,111.1,47.88,113.73,46.87,115.93Z"/><path class="cls-3" d="M47.06,115.47c1-2.17,2.06-4.34,3-6.54a56,56,0,0,0,4.26-16.18q.27-2.72.65-5.44c.58-3.87-2.18-6.78-6.84-8,.44-.89,1.75-.78,2.76-.5a38.83,38.83,0,0,1,5,1.28,5.93,5.93,0,0,1,4.19,6.15,63.48,63.48,0,0,1-6.9,27.24C51.79,116.29,50.16,116.79,47.06,115.47Z"/><path class="cls-4" d="M95.36,25.71c4.34.56,8.64,1.1,13,1.74a3.64,3.64,0,0,1,3.14,2.27c-.76.11-.94.75-1.23,1.28a13,13,0,0,1-6.79,5.59c-5.78,2.31-11.85,1.77-17.85,1.56a13.4,13.4,0,0,1-3.87-.64c-3.25-1-5.42-3.48-7.88-5.58a6,6,0,0,1,2.53-2.38,40.35,40.35,0,0,1,13-3.88A12.14,12.14,0,0,0,95.36,25.71Z"/><path class="cls-3" d="M73.83,32c2.45,2.1,4.62,4.52,7.87,5.59a13.81,13.81,0,0,0,3.87.64c6,.21,12.07.71,17.85-1.57a13.08,13.08,0,0,0,6.8-5.58c.29-.53.5-1.17,1.22-1.28a4.62,4.62,0,0,1-.14,3.91c-2,5.12-6.14,7.61-11.31,8.75-4.45,1-9,.56-13.48.6-6.14,0-9.9-3.55-13.77-7.32a1.15,1.15,0,0,1-.21-1.5A8.36,8.36,0,0,1,73.83,32Z"/><path class="cls-4" d="M164.35,99.8c-3.22,1-6.11.11-8.64-1.78-4.73-3.45-7.15-8.35-8.35-13.86a25.56,25.56,0,0,1-.14-10.74c.4-1.89.29-3.84,1.88-5.26,0,.92.76,1.13,1.41,1.49A29.07,29.07,0,0,1,162,81.21,25.42,25.42,0,0,1,164.35,99.8Z"/><path class="cls-3" d="M164.35,99.8a25.25,25.25,0,0,0-2.42-18.63,28.66,28.66,0,0,0-11.46-11.56c-.61-.35-1.41-.56-1.41-1.49,3.07-3.73,1.77-3.8,6-1.21,9.79,6.08,14.78,14.79,14.09,26.35C169,96.67,167.2,99,164.35,99.8Z"/><path class="cls-4" d="M146.82,120.88c2.64,0,4.05,1.85,3.29,4.31s-4.7,5.44-7.19,5.61c-.4,0-.54-.07-.65-.42-.47-2-1.05-3.95-.69-6S144.11,120.92,146.82,120.88Z"/><path class="cls-5" d="M199,110.72a20,20,0,0,0-2.28-7.68,4.8,4.8,0,0,1-.29-5.16,7.62,7.62,0,0,1,.44-1c3.36-5.47,3-11.06.79-16.85C195,73,192.32,65.81,189.86,58.63c-3.51-10.42-9.43-19.45-15.87-28.27-3.36-4.58-7-8.17-12.71-10.31-7.67-2.84-14.89-6.82-22.26-10.41-5.21-2.53-10.27-5.34-15.51-7.83C121.78,1,119.68.21,117.88.46c-7,.93-14,2.21-20.93,3.49-6.18,1.14-12.28,2.91-18.5,3.59a47,47,0,0,0-23.7,9c-8.21,6.11-13.92,14.15-18.54,23a8.66,8.66,0,0,1-4,4c-12,6.23-19.59,15.86-22.44,29a8,8,0,0,0,.68,5.83,7.87,7.87,0,0,1-.21,7.93c-2,3.62-3.9,7.39-6,11A25.69,25.69,0,0,0,.72,112.17,72.06,72.06,0,0,0,5,130.56c1.16,3.16,2.64,6.22,5.39,8.24,4.37,3.28,6.86,7.58,8.49,12.63,2.42,7.5,7.08,13.15,15,15.57a13.36,13.36,0,0,1,8.78,7.75,20,20,0,0,0,8,9.42,171.25,171.25,0,0,0,18.1,9c8.93,3.73,18.47,3.34,27.9,2.77a29.84,29.84,0,0,1,11.85,1.6,28.61,28.61,0,0,0,8.71,1.64c2.06-.11,9.29-1.43,13.37-4a19,19,0,0,1,3.9-2.2c7.66-2.45,13.81-7,19.19-12.77a12.6,12.6,0,0,1,6.54-3.87c9.72-2.06,15.65-8.14,19.12-17a12.5,12.5,0,0,1,3.32-5.16,33.7,33.7,0,0,0,10.44-14.61c2.14-5.76,4.7-11.41,5.75-17.46A58.46,58.46,0,0,0,199,110.72Zm-5.82-3.27c1.12,1.63,1.26,4,1.44,6.11.51,6-1.37,11.59-3,17.21a54.62,54.62,0,0,1-3.87,10.06,23.44,23.44,0,0,1-5.2,6.26,26.43,26.43,0,0,0-6.65,8.71c-1.34,2.77-2.78,5.51-4.3,8.18a13.92,13.92,0,0,1-11.85,7.57c-3,.21-5.53,1.85-7.77,3.8A130.64,130.64,0,0,1,141.73,184c-2.75,1.92-6.08,3.06-9.11,4.59-1.48.75-3,1.46-4.45,2.35a21.35,21.35,0,0,1-10.94,3.41A17.32,17.32,0,0,1,110.5,193c-4.77-2-9.61-2.13-14.67-1.49a47.73,47.73,0,0,1-28.54-4.66,66.58,66.58,0,0,0-6.22-2.78,23.64,23.64,0,0,1-12.43-10.34A22.82,22.82,0,0,0,35.56,163a17.13,17.13,0,0,1-11.2-11.7,32.75,32.75,0,0,0-9.87-15.4c-3.86-3.41-5.67-8-6.47-13-.43-2.67-.83-5.37-1.44-8a19.66,19.66,0,0,1,1.91-13.44C11.2,96,14.2,90.63,17.2,85.33c.69-1.24,1.05-2.42.4-3.66C14.2,75.23,15.87,69.3,19,63.25c2.46-4.76,5.46-8.89,10.05-11.84,1.95-1.24,3.79-2.77,5.82-3.87,3.5-1.92,5.74-4.77,7.77-8.11A106.34,106.34,0,0,1,51.46,26.7c6.07-7.29,14.16-11.3,23.56-13,13.62-2.45,27.17-5.12,40.76-7.5A8.07,8.07,0,0,1,121,7c7.22,4.52,15.36,7,23,10.6,5.93,2.73,11.82,5.58,17.74,8.32A22.54,22.54,0,0,1,170,33.07c9.32,12.09,15.36,25.74,20.09,40,1.45,4.34,3.11,8.57,4.41,12.91a10.45,10.45,0,0,1-1.41,8.85C190.33,99.13,190.29,103.14,193.22,107.45Z"/><path class="cls-5" d="M96.27,117.93c-6.36-1.06-10.3.93-12.87,6.76a66.44,66.44,0,0,0-3,7.43c-3.25,10.63-2.2,20.76,4.63,29.86,6.17,8.25,16.8,7.36,21.6-1.74,2.61-4.9,4-10.1,4-13.69A46.71,46.71,0,0,0,105.12,124C103.28,120.46,100.17,118.61,96.27,117.93ZM104,152a28.66,28.66,0,0,1-3.32,7c-2.13,3.49-5.78,3.91-9.07,1.32-4.77-3.73-6.54-8.89-7.26-14.58-.11-1-.15-2-.18-2.59a26.47,26.47,0,0,1,7.22-18.63,3.64,3.64,0,0,1,3.87-1.14,8.13,8.13,0,0,1,5.93,4.51C104.76,135.6,106.35,143.64,104,152Z"/><path class="cls-5" d="M55.8,73.46c-5.24-2-12.62.46-14.89,5.11a66.77,66.77,0,0,0-7,27,32.19,32.19,0,0,0,.36,3.7c1,4.8,4.34,7.75,8.35,10.14,6.07,3.55,12.65,1.56,15.68-4.7a73.87,73.87,0,0,0,6.8-25.74C65.73,81,62.7,76.12,55.8,73.46Zm3.72,14.25a66.42,66.42,0,0,1-6.47,24.75c-1.81,3.62-3.25,4.16-7,2.59-4.66-2-6.61-5.65-6.29-11.23a39.69,39.69,0,0,1,8-23.33c1-1.42,2.09-2.06,3.9-1.38,1.16.42,2.46.53,3.65,1C58.54,81.17,59.84,83.45,59.52,87.71Z"/><path class="cls-5" d="M86.62,48.74a125.53,125.53,0,0,0,16.12-1.42c6.07-1.06,10.33-4.8,12.68-10.52,2.64-6.44,0-11.91-6.72-13.9a48.22,48.22,0,0,0-14.49-1.82c-11.13,0-14.24.82-20.89,5.48-2.46,1.71-4.59,3.84-5.09,6.83a17.06,17.06,0,0,0,0,6.64c.25,1,2.09,1.75,3.28,2.56a24,24,0,0,0,2.9,1.78C78.31,46.33,82,49,86.62,48.74Zm-11-11.23c-2.35-2.24-2.42-3.13-.25-5.62A7.07,7.07,0,0,1,77.77,30a38.36,38.36,0,0,1,16-3.69c3.91.49,8.86,1.06,13.77,1.84,3.07.5,4.12,2.64,3.07,5.55-1.77,4.8-5.53,7.25-10.37,8.39-5.42,1.28-10.87.93-16.33.36C80.44,42.2,78,39.79,75.63,37.51Z"/><path class="cls-5" d="M165.72,69.44A19.75,19.75,0,0,0,149,60.23c-2.92-.07-5,1.31-5.56,4.09a68.87,68.87,0,0,0-1.92,12.58,33.9,33.9,0,0,0,7,21,14.86,14.86,0,0,0,12.65,6.33c.47,0,1,0,1.45,0,3.86-.36,7.62-1.17,9.14-5.15A19.45,19.45,0,0,0,173.24,91,44.78,44.78,0,0,0,165.72,69.44Zm3,22.61c-.14,6.36-5,9.42-10.87,6.72-4.88-2.24-7.38-6.47-9.18-11.16a27.13,27.13,0,0,1-.94-16.08c.5-2.13,2.42-4,3.76-6a32.5,32.5,0,0,1,12.21,10.06A26.24,26.24,0,0,1,168.68,92.05Z"/><path class="cls-5" d="M151.45,117.4a37.56,37.56,0,0,0-4.81-1.32,9.62,9.62,0,0,0-6.25,2.21c-4.16,3.34-5.39,7.82-4.84,12.87a5.76,5.76,0,0,0,5.24,4.83,14.52,14.52,0,0,0,14.67-8.74A7.21,7.21,0,0,0,151.45,117.4ZM150,124.51a5.23,5.23,0,0,1-2.67,4c-1.48.75-3,1.42-4.73,2.28a39.19,39.19,0,0,1-.73-5.37c0-3.16,4-5.3,6.87-3.8A2.54,2.54,0,0,1,150,124.51Z"/><path class="cls-5" d="M48.5,139.59c-3.62-1.53-6.76.6-6.69,5.86-.07,2.42,1.77,5.34,4.08,8.32a11.16,11.16,0,0,0,8.17,4.8,6.11,6.11,0,0,0,6.76-4.34c.87-3.3-.83-5.86-2.71-8.28C55.58,142.86,52.11,141.08,48.5,139.59Zm6.75,12.9a2.44,2.44,0,0,1-2.09.68,11,11,0,0,1-3.54-2.49A28.25,28.25,0,0,1,47,146.2c3.33.82,6.08,1.81,7.88,4.3C55.25,151,55.54,152.17,55.25,152.49Z"/><path class="cls-5" d="M116.32,75.84a33.52,33.52,0,0,0-4.08-1c-3.43,0-6,.53-7.84,2.31A44.2,44.2,0,0,0,99,83.66c-1.45,2.06-.73,3.55,1.62,4.62,2.68,1.17,5.32.64,8,.07,3.62-.78,7.16-1.85,9.72-4.69S120.08,77.22,116.32,75.84Z"/><path class="cls-5" d="M150.58,43.52a23.53,23.53,0,0,0,3.87.67c3.5-.21,3.9-.6,3.83-3.73a5.77,5.77,0,0,0-4.05-5.33c-1.92-.64-3.07-.07-4.92,2.34a7.8,7.8,0,0,0-.5.72C147.44,40.35,148.12,42.63,150.58,43.52Z"/><path class="cls-5" d="M95.29,125l0,.07,0,0,.07-.07-.07,0Z"/></g></svg>